<?xml version="1.0" standalone="no"?>
<!DOCTYPE svg PUBLIC "-//W3C//DTD SVG 20010904//EN"
 "http://www.w3.org/TR/2001/REC-SVG-20010904/DTD/svg10.dtd">
<svg version="1.0" xmlns="http://www.w3.org/2000/svg"
 width="10.000000pt" height="10.000000pt" viewBox="0 0 10.000000 10.000000"
 preserveAspectRatio="xMidYMid meet">
<metadata>
Created by potrace 1.16, written by Peter Selinger 2001-2019
</metadata>
<g transform="translate(0.000000,10.000000) scale(0.001953,-0.001953)"
fill="#000000" stroke="none">
<path d="M2255 5109 c-459 -55 -923 -248 -1288 -536 -103 -81 -316 -293 -402
-399 -234 -289 -407 -638 -495 -996 -57 -233 -65 -308 -65 -618 0 -310 8 -385
65 -618 67 -271 197 -569 346 -792 291 -436 716 -784 1181 -969 322 -128 605
-181 963 -181 423 0 786 84 1144 264 272 137 481 290 696 512 393 405 636 910
705 1464 20 163 20 477 0 640 -57 457 -245 907 -532 1273 -84 107 -355 372
-464 454 -273 205 -590 357 -911 439 -220 55 -316 66 -598 70 -146 1 -301 -2
-345 -7z m625 -314 c990 -142 1765 -918 1916 -1920 25 -165 25 -465 0 -630
-126 -832 -678 -1515 -1459 -1804 -250 -93 -493 -135 -777 -135 -363 0 -670
71 -995 229 -669 327 -1128 961 -1242 1715 -23 157 -23 463 0 620 75 500 294
937 642 1285 382 383 872 607 1435 659 84 8 375 -4 480 -19z"/>
<path d="M3438 3691 c-31 -10 -74 -29 -95 -41 -21 -13 -282 -266 -580 -564
l-543 -540 -207 205 c-190 187 -215 208 -282 238 -62 28 -89 35 -166 39 -150
8 -254 -32 -362 -139 -141 -140 -176 -356 -87 -539 34 -70 61 -100 428 -466
377 -378 394 -393 471 -430 72 -34 90 -39 176 -42 106 -5 179 11 260 54 30 17
291 271 787 767 707 708 743 745 772 810 107 237 9 508 -226 624 -73 36 -83
38 -183 40 -82 2 -119 -1 -163 -16z m239 -307 c60 -45 83 -109 69 -191 -7 -34
-84 -114 -709 -741 -392 -392 -718 -712 -739 -723 -45 -23 -108 -25 -152 -4
-18 9 -197 181 -398 383 -397 397 -388 386 -375 482 13 101 126 166 224 129
15 -5 141 -122 278 -259 268 -267 294 -287 369 -275 38 6 81 47 631 595 325
324 606 598 625 610 45 27 136 24 177 -6z"/>
</g>
</svg>
