<?xml version="1.0" standalone="no"?>
<!DOCTYPE svg PUBLIC "-//W3C//DTD SVG 20010904//EN"
 "http://www.w3.org/TR/2001/REC-SVG-20010904/DTD/svg10.dtd">
<svg version="1.0" xmlns="http://www.w3.org/2000/svg"
 width="10.000000pt" height="10.000000pt" viewBox="0 0 10.000000 10.000000"
 preserveAspectRatio="xMidYMid meet">
<metadata>
Created by potrace 1.16, written by Peter Selinger 2001-2019
</metadata>
<g transform="translate(0.000000,10.000000) scale(0.001953,-0.001953)"
fill="#000000" stroke="none">
<path d="M4395 5091 c-359 -94 -604 -251 -757 -483 -50 -76 -52 -78 -87 -73
-48 7 -798 82 -932 94 -222 19 -408 -29 -574 -147 -27 -19 -456 -441 -953
-936 -642 -641 -916 -921 -949 -969 -93 -139 -133 -277 -133 -455 0 -191 52
-343 166 -492 49 -63 1408 -1421 1470 -1468 54 -41 164 -95 249 -122 87 -28
280 -38 381 -21 183 32 404 166 455 276 35 75 19 168 -39 228 -80 85 -198 84
-301 -2 -27 -23 -75 -54 -108 -69 -51 -24 -70 -27 -158 -27 -92 0 -105 3 -170
33 -66 31 -107 70 -766 730 -486 486 -704 710 -719 741 -39 78 -51 125 -51
196 1 75 13 123 49 195 31 60 1796 1817 1863 1854 25 14 75 32 111 41 63 14
84 13 849 -65 431 -44 785 -80 786 -80 1 0 4 -35 8 -77 4 -43 9 -85 11 -94 3
-12 -15 -22 -83 -43 -112 -34 -292 -71 -412 -86 -52 -6 -110 -18 -128 -27 -65
-30 -113 -109 -113 -184 0 -73 52 -152 118 -182 40 -17 59 -19 147 -14 107 7
305 42 430 77 42 12 79 20 81 17 2 -2 25 -204 50 -448 49 -479 51 -546 14
-644 -21 -57 -47 -84 -556 -590 -478 -474 -536 -535 -550 -578 -44 -131 53
-267 189 -267 100 0 55 -39 775 674 231 228 420 424 444 458 89 132 138 288
138 443 0 74 -89 1019 -104 1105 -4 22 3 30 42 55 262 163 448 409 518 687 23
91 25 115 22 272 l-3 172 -34 68 c-44 91 -132 178 -219 219 -64 31 -72 32
-212 34 -132 3 -155 0 -255 -26z m306 -392 c20 -20 21 -29 16 -113 -10 -162
-74 -316 -175 -418 -25 -27 -49 -48 -52 -48 -4 0 -11 44 -16 98 -12 116 -34
165 -90 205 -40 28 -73 35 -249 54 l-70 8 67 48 c103 74 257 139 409 172 95
20 135 19 160 -6z"/>
<path d="M3055 3261 c-49 -12 -87 -37 -139 -90 l-49 -50 -36 18 c-102 52 -254
72 -367 48 -115 -25 -207 -77 -301 -172 -190 -193 -235 -437 -122 -672 32 -67
59 -102 149 -196 60 -63 114 -126 120 -141 34 -91 -35 -202 -134 -213 -64 -8
-106 20 -243 160 -109 111 -123 129 -123 160 0 23 10 46 30 72 112 141 23 335
-155 335 -71 0 -120 -25 -172 -87 -79 -94 -113 -190 -113 -314 0 -109 25 -194
81 -279 l42 -62 -46 -46 c-61 -64 -80 -105 -80 -173 1 -117 85 -199 203 -199
61 0 97 17 171 81 l56 48 38 -26 c98 -67 276 -99 408 -74 183 36 350 181 425
369 23 60 26 80 26 192 0 104 -3 135 -22 184 -35 95 -80 160 -194 281 -117
124 -131 153 -109 227 16 52 87 123 140 139 69 20 104 3 209 -104 81 -83 92
-99 92 -129 0 -24 -10 -47 -30 -73 -55 -69 -63 -141 -26 -222 32 -67 86 -105
162 -111 112 -9 194 53 262 198 31 66 36 87 40 176 5 110 -9 176 -55 267 l-24
49 51 59 c60 69 80 112 80 174 0 56 -18 101 -56 139 -47 47 -128 71 -189 57z"/>
</g>
</svg>
